<?xml version="1.0" encoding="UTF-8"?>
<svg width="17px" height="17px" viewBox="0 0 17 17" version="1.1" xmlns="http://www.w3.org/2000/svg" xmlns:xlink="http://www.w3.org/1999/xlink">
    <!-- Generator: Sketch 51.3 (57544) - http://www.bohemiancoding.com/sketch -->
    <title>Cricket-Ball</title>
    <desc>Created with Sketch.</desc>
    <defs></defs>
    <g id="Page-1" stroke="none" stroke-width="1" fill="none" fill-rule="evenodd">
        <g id="Artboard" transform="translate(-119.000000, -72.000000)">
            <g id="Match-Day-Logo" transform="translate(30.000000, 46.000000)">
                <g id="Group-30">
                    <g id="Cricket-Ball" transform="translate(89.000000, 26.000000)">
                        <path d="M16.307531,8.2140459 C16.307531,12.6508984 12.6651402,16.2473574 8.17162299,16.2473574 C3.67870345,16.2473574 0.0363126437,12.6508984 0.0363126437,8.2140459 C0.0363126437,3.77778361 3.67870345,0.18132459 8.17162299,0.18132459 C12.6651402,0.18132459 16.307531,3.77778361 16.307531,8.2140459" id="Fill-20" fill="#FEFEFE"></path>
                        <path d="M7.46286897,8.29011803 C8.31698391,5.88815082 9.65463908,3.81077377 11.2277885,2.43982295 C11.2642483,2.40854426 11.300708,2.37962623 11.3377655,2.3489377 C11.0532598,2.19785574 10.7544092,2.07274098 10.4471908,1.96297049 C10.2929839,2.07864262 10.1393747,2.20139672 9.98516782,2.33536393 C8.49270805,3.63549508 7.2196046,5.61962623 6.40135172,7.92067541 C5.57652414,10.2388393 5.34342069,12.5204131 5.62792644,14.3452 C5.94829425,14.4750361 6.2824092,14.5777246 6.62548966,14.6579869 C6.39238621,12.7269705 6.68047816,10.4908393 7.46286897,8.29011803" id="Fill-22" fill="#C50000"></path>
                        <path d="M5.79755402,7.71093115 C6.65166897,5.30896393 7.98872644,3.23099672 9.56187586,1.86063607 C9.60849655,1.81991475 9.65631264,1.78332459 9.70293333,1.74378361 C9.35447356,1.66293115 8.99645057,1.61099672 8.62886437,1.58620984 C8.54937011,1.65112787 8.46868046,1.71073443 8.38858851,1.78037377 C6.89612874,3.08050492 5.62362299,5.0640459 4.80537011,7.36568525 C4.06182989,9.45545574 3.78210575,11.569423 3.99189885,13.3918492 C4.29732414,13.6332262 4.62127816,13.8515869 4.96674943,14.0374885 C4.7461977,12.1755213 4.99902529,9.95591475 5.79755402,7.71093115" id="Fill-24" fill="#C50000"></path>
                        <path d="M11.9166989,2.69253115 C11.8282391,2.76394098 11.7391816,2.83771148 11.6507218,2.91502295 C10.1576644,4.2151541 8.88515862,6.19869508 8.06690575,8.50033443 C7.28869885,10.6868918 7.01973333,12.8994164 7.28630805,14.7779082 C7.5767908,14.8156787 7.87085977,14.8416459 8.17150345,14.8416459 C11.8790437,14.8416459 14.8842851,11.8695803 14.8842851,8.2028918 C14.8842851,5.90774426 13.7068138,3.88525246 11.9166989,2.69253115" id="Fill-26" fill="#C50000"></path>
                        <path d="M4.20175172,7.15535082 C5.00028046,4.90918689 6.22437241,2.95456393 7.66602759,1.58892459 C4.19577471,1.84505574 1.45949885,4.70499016 1.45949885,8.2028918 C1.45949885,9.97043279 2.1617977,11.5721377 3.30041839,12.7619082 C3.21554483,11.0156131 3.51977471,9.07279344 4.20175172,7.15535082" id="Fill-28" fill="#C50000"></path>
                    </g>
                </g>
            </g>
        </g>
    </g>
</svg>