<?xml version="1.0" encoding="UTF-8"?>
<svg width="156px" height="72px" viewBox="0 0 156 72" version="1.1" xmlns="http://www.w3.org/2000/svg" xmlns:xlink="http://www.w3.org/1999/xlink">
    <!-- Generator: Sketch 51.3 (57544) - http://www.bohemiancoding.com/sketch -->
    <title>Matchday-Text</title>
    <desc>Created with Sketch.</desc>
    <defs>
        <polygon id="path-1" points="0.00035862069 0.16495082 155.477609 0.16495082 155.477609 21.8363607 0.00035862069 21.8363607"></polygon>
        <polygon id="path-3" points="0.00035862069 0.16495082 155.477609 0.16495082 155.477609 21.8360656 0.00035862069 21.8360656"></polygon>
    </defs>
    <g id="Page-1" stroke="none" stroke-width="1" fill="none" fill-rule="evenodd">
        <g id="Artboard" transform="translate(-30.000000, -46.000000)">
            <g id="Match-Day-Logo" transform="translate(30.000000, 46.000000)">
                <g id="Matchday-Text">
                    <polygon id="Fill-1" fill="#FFFFFF" points="14.6307392 25.7244619 11.2330867 48.6028937 7.56438273 26.4185414 0.634146341 27.0995251 0.634146341 58.8521739 4.98226189 58.4247733 4.98226189 35.9713611 8.69673545 58.0598756 13.4074416 57.5973544 16.849675 34.4873644 16.849675 57.2592436 21.5609756 56.7961271 21.5609756 25.0434783"></polygon>
                    <path d="M30.2777264,45.8142632 L35.1662971,45.3486914 L32.7223144,29.7238182 L30.2777264,45.8142632 Z M41.8536585,54.6560133 L36.7344891,55.1433353 L35.8580931,49.5382501 L29.631929,50.1313839 L28.7555331,55.9040044 L24.097561,56.3478261 L29.2627291,24.4990676 L36.6884904,23.7913043 L41.8536585,54.6560133 Z" id="Fill-2" fill="#FFFFFF"></path>
                    <polygon id="Fill-3" fill="#FFFFFF" points="39.3170732 23.4170904 54.5365854 21.9130435 54.5365854 26.4222259 49.3890079 26.9304778 49.3890079 53.9832054 44.4652381 54.4695652 44.4652381 27.4168376 39.3170732 27.9256811"></polygon>
                    <g id="Group-30">
                        <path d="M71.6530115,40.2969836 L71.6530115,44.4794754 C71.6530115,49.5165246 69.102023,52.6414426 64.1829425,53.1177049 C59.2638621,53.5945574 56.714069,50.9630164 56.714069,45.9271475 L56.714069,29.5565902 C56.714069,24.5201311 59.2638621,21.394623 64.1829425,20.9183607 C69.102023,20.4415082 71.6530115,23.072459 71.6530115,28.1095082 L71.6530115,31.1677377 L66.9162299,31.6268852 L66.9162299,28.2535082 C66.9162299,26.0049836 65.9138851,25.2478033 64.3198161,25.4018361 C62.7257471,25.556459 61.724,26.5083934 61.724,28.7563279 L61.724,45.756 C61.724,48.0045246 62.7257471,48.7168525 64.3198161,48.5622295 C65.9138851,48.4081967 66.9162299,47.5017049 66.9162299,45.2531803 L66.9162299,40.755541 L71.6530115,40.2969836 Z" id="Fill-4" fill="#FFFFFF"></path>
                        <polygon id="Fill-6" fill="#FFFFFF" points="79.7125931 51.2539082 74.7020644 51.739023 74.7020644 20.2584984 79.7125931 19.7733836 79.7125931 33.2657115 85.4056966 32.7139082 85.4056966 19.2221705 90.5070759 18.7276131 90.5070759 50.2081377 85.4056966 50.7021049 85.4056966 37.2109574 79.7125931 37.7627607"></polygon>
                        <path d="M108.949802,21.4382361 L108.949802,43.9246623 L111.77394,43.6508262 C113.368009,43.4962033 114.324331,42.5938426 114.324331,40.3459082 L114.324331,23.9753508 C114.324331,21.7274164 113.368009,21.0103672 111.77394,21.1649902 L108.949802,21.4382361 Z M103.939871,17.4263016 L111.864791,16.6584984 C116.87532,16.1733836 119.33486,18.6786295 119.33486,23.7156787 L119.33486,39.6353508 C119.33486,44.6724 116.87532,47.653318 111.864791,48.1396131 L103.939871,48.9068262 L103.939871,17.4263016 Z" id="Fill-8" fill="#FFFFFF"></path>
                        <path d="M127.257867,36.6643475 L132.085499,36.1969377 L129.671384,20.5103803 L127.257867,36.6643475 Z M138.690097,45.5410033 L133.634143,46.0308393 L132.768671,40.4024459 L126.62012,40.9985115 L125.754051,46.7939213 L121.154143,47.2389049 L126.255522,15.2650033 L133.588717,14.5544459 L138.690097,45.5410033 Z" id="Fill-10" fill="#FFFFFF"></path>
                        <polygon id="Fill-12" fill="#FFFFFF" points="143.880294 34.6045574 137.549444 14.1707213 142.787099 13.6631803 146.612386 27.6388525 150.439467 12.9219344 155.221674 12.4586557 148.890823 34.1188525 148.890823 44.5523607 143.880294 45.0374754"></polygon>
                        <g id="Group-16">
                            <mask id="mask-2" fill="white">
                                <use xlink:href="#path-1"></use>
                            </mask>
                            <g id="Clip-15"></g>
                            <polygon id="Fill-14" fill="#FFD600" fill-rule="nonzero" mask="url(#mask-2)" points="155.477968 6.85327869 0.00035862069 21.8363607 0.00035862069 15.1474426 155.477968 0.16495082"></polygon>
                        </g>
                        <g id="Group-19" transform="translate(0.000000, 49.573770)">
                            <mask id="mask-4" fill="white">
                                <use xlink:href="#path-3"></use>
                            </mask>
                            <g id="Clip-18"></g>
                            <polygon id="Fill-17" fill="#FFD600" fill-rule="nonzero" mask="url(#mask-4)" points="155.477968 6.85327869 0.00035862069 21.8363607 0.00035862069 15.1474426 155.477968 0.16495082"></polygon>
                        </g>
                    </g>
                </g>
            </g>
        </g>
    </g>
</svg>